<?xml version="1.0" standalone="no"?>
<!DOCTYPE svg PUBLIC "-//W3C//DTD SVG 20010904//EN"
 "http://www.w3.org/TR/2001/REC-SVG-20010904/DTD/svg10.dtd">
<svg version="1.0" xmlns="http://www.w3.org/2000/svg"
 width="330.000000pt" height="150.000000pt" viewBox="0 0 330.000000 150.000000"
 preserveAspectRatio="xMidYMid meet">

<g transform="translate(0.000000,150.000000) scale(0.100000,-0.100000)"
fill="#000000" stroke="none">
<path d="M1522 1228 c-7 -7 -12 -27 -12 -45 l0 -33 -85 0 c-73 0 -86 -3 -95
-19 -16 -31 -13 -413 4 -436 10 -14 30 -20 80 -23 l66 -4 0 -39 0 -39 135 0
135 0 0 39 0 39 64 4 c99 6 96 -2 96 235 0 122 -4 212 -10 224 -9 16 -22 19
-95 19 l-85 0 0 39 c0 26 -5 41 -16 45 -29 11 -169 7 -182 -6z m148 -58 c0
-18 -7 -20 -55 -20 -48 0 -55 2 -55 20 0 18 7 20 55 20 48 0 55 -2 55 -20z
m190 -255 l0 -195 -245 0 -245 0 0 195 0 195 245 0 245 0 0 -195z m-160 -260
c0 -12 -16 -15 -85 -15 -69 0 -85 3 -85 15 0 12 16 15 85 15 69 0 85 -3 85
-15z"/>
<path d="M1491 1001 c-6 -11 -8 -27 -5 -35 8 -22 63 -21 71 0 15 40 -46 73
-66 35z"/>
<path d="M1687 1014 c-4 -4 -7 -20 -7 -36 0 -25 4 -28 30 -28 34 0 49 23 33
49 -11 17 -44 26 -56 15z"/>
<path d="M1495 840 c-8 -13 48 -47 91 -55 40 -7 97 7 139 34 23 16 26 21 13
26 -9 4 -30 -1 -47 -9 -38 -20 -121 -21 -147 -1 -22 17 -40 19 -49 5z"/>
<path d="M980 430 c0 -93 1 -100 20 -100 17 0 20 7 20 40 0 39 1 40 35 40 34
0 35 -1 35 -40 0 -33 3 -40 20 -40 19 0 20 7 20 100 0 93 -1 100 -20 100 -17
0 -20 -7 -20 -40 0 -39 -1 -40 -35 -40 -34 0 -35 1 -35 40 0 33 -3 40 -20 40
-19 0 -20 -7 -20 -100z"/>
<path d="M1199 512 c-28 -23 -30 -73 -4 -102 41 -45 125 -12 125 50 0 61 -71
91 -121 52z m79 -49 c4 -30 -31 -49 -52 -27 -19 19 -20 26 -4 42 19 19 53 10
56 -15z"/>
<path d="M1360 430 l0 -100 39 0 c22 0 51 4 65 10 29 11 44 53 26 74 -8 11 -8
20 -1 35 13 24 0 65 -24 75 -9 3 -37 6 -61 6 l-44 0 0 -100z m88 43 c-2 -10
-13 -19 -26 -21 -17 -3 -22 2 -22 17 0 16 6 21 26 21 19 0 25 -5 22 -17z m7
-83 c0 -9 -11 -16 -27 -18 -23 -3 -28 1 -28 18 0 17 5 21 28 18 16 -2 27 -9
27 -18z"/>
<path d="M1530 430 l0 -100 39 0 c22 0 51 4 65 10 29 11 44 53 26 74 -8 11 -8
20 -1 35 13 24 0 65 -24 75 -9 3 -37 6 -61 6 l-44 0 0 -100z m88 43 c-2 -10
-13 -19 -26 -21 -17 -3 -22 2 -22 17 0 16 6 21 26 21 19 0 25 -5 22 -17z m7
-83 c0 -9 -11 -16 -27 -18 -23 -3 -28 1 -28 18 0 17 5 21 28 18 16 -2 27 -9
27 -18z"/>
<path d="M1714 482 c26 -37 35 -60 38 -97 2 -38 7 -51 21 -53 14 -3 17 4 17
41 0 35 8 55 41 100 40 56 40 57 15 57 -16 0 -33 -11 -49 -31 l-24 -31 -22 31
c-15 21 -31 31 -48 31 l-25 0 36 -48z"/>
<path d="M1880 510 c0 -11 5 -20 10 -20 6 0 10 -27 10 -60 0 -33 -4 -60 -10
-60 -5 0 -10 -9 -10 -20 0 -17 7 -20 40 -20 33 0 40 3 40 20 0 11 -4 20 -10
20 -6 0 -10 27 -10 60 0 33 4 60 10 60 6 0 10 9 10 20 0 17 -7 20 -40 20 -33
0 -40 -3 -40 -20z"/>
<path d="M2000 510 c-36 -36 -25 -69 33 -93 20 -9 37 -21 37 -27 0 -16 -30
-24 -43 -11 -14 14 -47 15 -47 1 0 -19 40 -50 65 -50 30 0 65 32 65 60 0 25
-34 60 -59 60 -24 0 -36 29 -15 37 8 3 20 1 27 -6 12 -12 47 -15 47 -3 0 4 -7
18 -16 30 -19 28 -67 29 -94 2z"/>
<path d="M2130 510 c0 -13 7 -20 20 -20 18 0 20 -7 20 -80 0 -73 2 -80 20 -80
18 0 20 7 20 80 0 73 2 80 20 80 13 0 20 7 20 20 0 18 -7 20 -60 20 -53 0 -60
-2 -60 -20z"/>
<path d="M1180 350 c0 -18 7 -20 65 -20 58 0 65 2 65 20 0 18 -7 20 -65 20
-58 0 -65 -2 -65 -20z"/>
</g>
</svg>
